<svg height="746" viewBox="0 0 1073 746" width="1073" xmlns="http://www.w3.org/2000/svg"><g fill="none"><path d="m1073 562.55849c0 38.59549-250.36912 183.44369-543.05156 183.44369s-529.94844-74.96489-529.94844-113.56038 231.44239 7.27952 524.12483 7.27952 548.87517-115.75831 548.87517-77.16283z" fill="#ced2d2"/><path d="m1073 562.55849c0 38.59549-250.36912 183.44369-543.05156 183.44369s-529.94844-74.96489-529.94844-113.56038 231.44239 7.27952 524.12483 7.27952 548.87517-115.75831 548.87517-77.16283z" fill="#ced2d2" opacity=".1"/><path d="m1073 562.55849c0 38.59549-250.36912 139.76663-543.05156 139.76663s-529.94844-31.28783-529.94844-69.88332 231.44235-36.39755 524.12483-36.39755 548.87517-72.08124 548.87517-33.48576z" fill="#e6eaea"/><ellipse cx="535.87833" cy="639.77394" fill="#000" opacity=".1" rx="225.04403" ry="17.40672"/><path d="m357.59802 290.96566s65.88345 1.22006 53.68281 12.81067-57.953 0-57.953 0z" fill="#fbbfbe"/><path d="m220.3285 150.18292s26.60021-4.75031 35.84921 16.72359 28.244 82.71589 28.244 82.71589 50.83308 33.64785 60.079 32.54232 25.05178 1.15023 22.15247 11.2372-1.6122 21.52484-8.28694 22.92668-17.29058-11.97954-25.415-5.53421-80.53015-17.09648-85.17856-21.97431-43.27878-110.50134-43.27878-110.50134 1.54524-28.47996 15.8346-28.13582z" fill="#2f2f2f"/><path d="m277.379 603.607 3.05 25.621-25.621 6.711-14.641-6.711v-22.571z" fill="#fbbfbe"/><path d="m208.445 620.078 3.05 25.621-25.621 6.711-14.641-6.711v-22.571z" fill="#fbbfbe"/><path d="m279.81895 323.60237 11.59061 42.0922 17.08089 85.40452s4.88026 20.74108-4.88025 45.75239-27.45144 106.75554-23.79125 111.63579-41.48217 8.54045-40.87214 3.66019 6.71036-71.98376 6.71036-71.98376 8.54044-59.1731 12.81067-66.49348-19.521-25.62134-19.521-25.62134-6.10031 70.15367-15.25079 76.254-7.93045 100.65521-12.2007 101.87532-35.38185 6.10032-39.042 0 0-107.97565 0-107.97565 20.74108-77.47406 16.47086-88.45463-1.8301-57.953-1.8301-57.953-15.86083-35.99189-7.32038-54.90287z" fill="#000"/><path d="m277.98886 89.35009s-25.62134 31.72166-24.40128 45.75239-40.26211-25.62134-40.26211-25.62134 29.89157-40.2621 29.89157-48.80255 34.77182 28.6715 34.77182 28.6715z" fill="#fbbfbe"/><circle cx="277.68384" cy="60.98363" fill="#fbbfbe" r="40.26211"/><path d="m176.21719 300.78109c-1.824 6.79577-4.08719 14.50047-3.76385 20.99122.20746 4.20313 11.36489 6.96045 26.79255 8.76616 14.30529 1.67758 32.283 2.53161 48.62569 2.97085 17.16021.46363 32.50245.46363 39.87779.46363 21.96115 0 4.27022-14.03074-4.27023-20.74109s-6.71035-101.87533-6.10031-114.076-5.49029-47.58249-5.49029-54.29285-14.35407-24.22438-14.35407-24.22438-3.33686 9.58362-16.75756-3.227-31.11163-16.47086-31.11163-16.47086c-13.4207 4.88025-35.99188 58.56306-37.21194 67.71354-.49417 3.71507-.08542 22.742.74422 44.46523 1.20174 31.75216 3.30029 69.2874 4.74606 73.27093 1.14073 3.14162-.12197 8.41228-1.72643 14.39062z" fill="#2f2f2f"/><path d="m241.387 336.413 4.27 15.251-16.471 17.081-5.49-23.792z" fill="#fbbfbe"/><g transform="translate(155.02435 .00109)"><g fill="#000"><path d="m91.85288 622.51692s12.81067 14.64076 22.57118 4.88025 9.15048-15.86083 10.98058-15.86083 29.28153 24.40128 29.28153 24.40128 46.97245 10.98057 21.35111 18.911-98.21513 2.44013-98.21513 0-1.8301-34.77182 4.88025-34.77182z"/><path d="m22.91927 638.98778s12.81067 14.64076 22.57118 4.88025 9.15048-15.86083 10.98058-15.86083 29.28153 24.40128 29.28153 24.40128 46.97246 10.98057 21.35112 18.911-98.21514 2.44013-98.21514 0-1.8301-34.77182 4.88025-34.77182z"/><path d="m73.16016 93.97585c-4.8418616-12.0754459-8.4609571-24.6058751-10.803-37.40333-.82225-4.49515-1.393-9.49233 1.10424-13.3194.9849-1.50939 2.40274-2.74371 3.12416-4.39532 1.09254-2.50124.37345-5.39643.73641-8.10163.76042-5.66737 6.11775-9.62022 11.505-11.5373s11.23835-2.51176 16.37345-5.02733c4.87591-2.38861 8.78111-6.35 13.3025-9.35611s10.31287-5.0615 15.34812-3.03018c4.45436 1.797 7.229 6.33734 11.43921 8.64913 2.8571 1.5688 6.17272 2.00534 9.36187 2.67875 8.863872 1.8806043 17.185824 5.746944 24.33972 11.30812 1.740619 1.2416403 3.24148 2.7888348 4.42964 4.56639 5.40289 8.8953-4.27062 20.98885-.00283 30.48113l-9.22662-7.28052c-2.463966-2.1552483-5.242825-3.9213002-8.24035-5.237-3.05623-1.15765-6.67559-1.29745-9.45179.42692-3.89609 2.42-4.95269 7.47582-6.3137 11.8557s-4.3705 9.23676-8.95561 9.12455c-6.23545-.15259-8.41611-8.85468-14.012-11.60979-3.6479-1.796-8.23962-.61324-11.34953 2.00618-3.10968 2.61923-4.97572 6.41973-6.34429 10.24826-.85526 2.39254-1.65774 5.08957-3.1768 7.16346-1.6754 2.28735-3.81829 2.47136-5.60773 4.17946-4.65798 4.44627-7.52185 9.03322-13.2839 12.75579-1.30065.84028-2.99385 1.69175-4.29617.85407z"/><path d="m21.19284 300.78c7.58272 10.99889 16.12928 22.34547 23.0287 29.75738 14.30529 1.67758 32.283 2.53161 48.62569 2.97085-2.9196627-3.958575-6.5703563-7.321436-10.75486-9.90691-7.93037-4.88032-26.84137-62.83332-26.84137-62.83332s23.18122-59.78313 29.28154-82.35431-17.69093-35.38185-17.69093-35.38185c-10.98061-9.15049-29.89161 12.20063-29.89161 12.20063s-9.65075 29.1107-18.7768 57.88593c1.20174 31.75216 3.30029 69.2874 4.74606 73.27093 1.14074 3.14167-.12196 8.41233-1.72642 14.39067z" opacity=".1"/></g><path d="m65.01148 138.15157s23.79124 12.81067 17.69092 35.38185-29.28153 82.35431-29.28153 82.35431 18.911 57.953 26.8414 62.83329 18.911 16.47086 10.37055 22.57118-14.64077 15.86083-20.74109 12.81067-6.10032-20.13105-16.47086-20.13105-52.46275-63.44332-53.07278-70.15367 34.77182-113.46594 34.77182-113.46594 18.91099-21.35112 29.89157-12.20064z" fill="#2f2f2f"/><path d="m559.7215 304.89095-6.8628-6.86279c-8.335682-8.335678-21.850488-8.335678-30.18617 0l-133.11519 133.11519-133.11519-133.11519c-8.335682-8.335678-21.850488-8.335678-30.18617 0l-6.86279 6.86279c-4.002939 4.002935-6.251768 9.432082-6.251768 15.09309s2.248829 11.090155 6.251768 15.09309l133.11518 133.11519-133.11518 133.11518c-4.002939 4.002935-6.251768 9.432082-6.251768 15.09309s2.248829 11.090155 6.251768 15.09309l6.86279 6.86279c8.335682 8.335678 21.850488 8.335678 30.18617 0l133.11519-133.11519 133.11519 133.11519c8.335682 8.335678 21.850488 8.335678 30.18617 0l6.8628-6.86279c8.335679-8.335685 8.335679-21.850495 0-30.18618l-133.11519-133.11518 133.11519-133.11519c8.335679-8.335685 8.335679-21.850495 0-30.18618z" fill="#fd1015"/><path d="m214.6427 608.54463 129.16235-129.16228-1.24334-1.24334-123.16854 123.16847c-2.06309 2.061041-3.680098 4.524488-4.75047 7.23715z" fill="#000" opacity=".1"/><path d="m217.5526 309.21818c8.335693-8.335688 21.850517-8.335688 30.18621 0l133.11519 133.11517 133.11515-133.11517c8.335693-8.335688 21.850517-8.335688 30.18621 0l6.86279 6.86279c6.01719 6.018439 7.883912 15.036369 4.75047 22.949l3.95289-3.95289c4.002939-4.002927 6.251768-9.432068 6.251768-15.09307s-2.248829-11.090143-6.251768-15.09307l-6.86279-6.86279c-8.335698-8.335677-21.850512-8.335677-30.18621 0l-133.11517 133.11516-133.11517-133.11517c-8.335698-8.335677-21.850512-8.335677-30.18621 0l-6.86279 6.86279c-2.06309 2.061041-3.680098 4.524488-4.75047 7.23715z" fill="#000" opacity=".1"/><path d="m427.84968 469.43565-9.94669 9.9467 133.11516 133.11517c6.017214 6.018455 7.883938 15.036419 4.75047 22.94907l3.95289-3.953c4.002939-4.002927 6.251768-9.432068 6.251768-15.09307s-2.248829-11.090143-6.251768-15.09307z" fill="#000" opacity=".1"/></g></g></svg>
